<?xml version="1.0" encoding="UTF-8" standalone="no"?>
<!DOCTYPE svg PUBLIC "-//W3C//DTD SVG 1.1//EN"
 "http://www.w3.org/Graphics/SVG/1.1/DTD/svg11.dtd">
<!-- Generated by graphviz version 13.0.1 (20250615.1724)
 -->
<!-- Title: BlockedHistogram Pages: 1 -->
<svg width="861pt" height="69pt"
 viewBox="0.00 0.00 861.00 69.00" xmlns="http://www.w3.org/2000/svg" xmlns:xlink="http://www.w3.org/1999/xlink">
<g id="graph0" class="graph" transform="scale(1 1) rotate(0) translate(4 64.5)">
<title>BlockedHistogram</title>
<polygon fill="white" stroke="none" points="-4,4 -4,-64.5 856.5,-64.5 856.5,4 -4,4"/>
<text xml:space="preserve" text-anchor="middle" x="426.25" y="-43.2" font-family="Times,serif" font-size="14.00">FraudScore &#45; Blocked Time Histogram</text>
<!-- bucket_0 -->
<g id="node1" class="node">
<title>bucket_0</title>
<polygon fill="lightgray" stroke="black" points="69.25,-36 0,-36 0,0 69.25,0 69.25,-36"/>
<text xml:space="preserve" text-anchor="middle" x="34.62" y="-20.5" font-family="Arial" font-size="10.00">[0s &#45; 0s]</text>
<text xml:space="preserve" text-anchor="middle" x="34.62" y="-8.5" font-family="Arial" font-size="10.00">0 goroutines</text>
</g>
<!-- bucket_1 -->
<g id="node2" class="node">
<title>bucket_1</title>
<polygon fill="lightgray" stroke="black" points="174.5,-36 105.25,-36 105.25,0 174.5,0 174.5,-36"/>
<text xml:space="preserve" text-anchor="middle" x="139.88" y="-20.5" font-family="Arial" font-size="10.00">[0s &#45; 10ms]</text>
<text xml:space="preserve" text-anchor="middle" x="139.88" y="-8.5" font-family="Arial" font-size="10.00">0 goroutines</text>
</g>
<!-- bucket_0&#45;&gt;bucket_1 -->
<g id="edge1" class="edge">
<title>bucket_0&#45;&gt;bucket_1</title>
<path fill="none" stroke="black" stroke-dasharray="5,2" d="M69.72,-18C78.27,-18 87.54,-18 96.44,-18"/>
<polygon fill="black" stroke="black" points="96.3,-20.45 103.3,-18 96.3,-15.55 96.3,-20.45"/>
</g>
<!-- bucket_2 -->
<g id="node3" class="node">
<title>bucket_2</title>
<polygon fill="lightgray" stroke="black" points="289.5,-36 210.5,-36 210.5,0 289.5,0 289.5,-36"/>
<text xml:space="preserve" text-anchor="middle" x="250" y="-20.5" font-family="Arial" font-size="10.00">[10ms &#45; 50ms]</text>
<text xml:space="preserve" text-anchor="middle" x="250" y="-8.5" font-family="Arial" font-size="10.00">0 goroutines</text>
</g>
<!-- bucket_1&#45;&gt;bucket_2 -->
<g id="edge2" class="edge">
<title>bucket_1&#45;&gt;bucket_2</title>
<path fill="none" stroke="black" stroke-dasharray="5,2" d="M174.79,-18C183.42,-18 192.85,-18 202,-18"/>
<polygon fill="black" stroke="black" points="201.79,-20.45 208.79,-18 201.79,-15.55 201.79,-20.45"/>
</g>
<!-- bucket_3 -->
<g id="node4" class="node">
<title>bucket_3</title>
<polygon fill="lightgray" stroke="black" points="409.75,-36 325.5,-36 325.5,0 409.75,0 409.75,-36"/>
<text xml:space="preserve" text-anchor="middle" x="367.62" y="-20.5" font-family="Arial" font-size="10.00">[50ms &#45; 100ms]</text>
<text xml:space="preserve" text-anchor="middle" x="367.62" y="-8.5" font-family="Arial" font-size="10.00">20 goroutines</text>
</g>
<!-- bucket_2&#45;&gt;bucket_3 -->
<g id="edge3" class="edge">
<title>bucket_2&#45;&gt;bucket_3</title>
<path fill="none" stroke="black" stroke-dasharray="5,2" d="M289.82,-18C298.56,-18 307.95,-18 317.07,-18"/>
<polygon fill="black" stroke="black" points="316.82,-20.45 323.82,-18 316.82,-15.55 316.82,-20.45"/>
</g>
<!-- bucket_4 -->
<g id="node5" class="node">
<title>bucket_4</title>
<polygon fill="lightgray" stroke="black" points="535.25,-36 445.75,-36 445.75,0 535.25,0 535.25,-36"/>
<text xml:space="preserve" text-anchor="middle" x="490.5" y="-20.5" font-family="Arial" font-size="10.00">[100ms &#45; 500ms]</text>
<text xml:space="preserve" text-anchor="middle" x="490.5" y="-8.5" font-family="Arial" font-size="10.00">0 goroutines</text>
</g>
<!-- bucket_3&#45;&gt;bucket_4 -->
<g id="edge4" class="edge">
<title>bucket_3&#45;&gt;bucket_4</title>
<path fill="none" stroke="black" stroke-dasharray="5,2" d="M410.22,-18C418.81,-18 427.97,-18 436.89,-18"/>
<polygon fill="black" stroke="black" points="436.84,-20.45 443.84,-18 436.84,-15.55 436.84,-20.45"/>
</g>
<!-- bucket_5 -->
<g id="node6" class="node">
<title>bucket_5</title>
<polygon fill="lightgray" stroke="black" points="642,-36 571.25,-36 571.25,0 642,0 642,-36"/>
<text xml:space="preserve" text-anchor="middle" x="606.62" y="-20.5" font-family="Arial" font-size="10.00">[500ms &#45; 1s]</text>
<text xml:space="preserve" text-anchor="middle" x="606.62" y="-8.5" font-family="Arial" font-size="10.00">0 goroutines</text>
</g>
<!-- bucket_4&#45;&gt;bucket_5 -->
<g id="edge5" class="edge">
<title>bucket_4&#45;&gt;bucket_5</title>
<path fill="none" stroke="black" stroke-dasharray="5,2" d="M535.62,-18C544.46,-18 553.74,-18 562.55,-18"/>
<polygon fill="black" stroke="black" points="562.3,-20.45 569.3,-18 562.3,-15.55 562.3,-20.45"/>
</g>
<!-- bucket_6 -->
<g id="node7" class="node">
<title>bucket_6</title>
<polygon fill="lightgray" stroke="black" points="747.25,-36 678,-36 678,0 747.25,0 747.25,-36"/>
<text xml:space="preserve" text-anchor="middle" x="712.62" y="-20.5" font-family="Arial" font-size="10.00">[1s &#45; 5s]</text>
<text xml:space="preserve" text-anchor="middle" x="712.62" y="-8.5" font-family="Arial" font-size="10.00">0 goroutines</text>
</g>
<!-- bucket_5&#45;&gt;bucket_6 -->
<g id="edge6" class="edge">
<title>bucket_5&#45;&gt;bucket_6</title>
<path fill="none" stroke="black" stroke-dasharray="5,2" d="M642.26,-18C650.94,-18 660.36,-18 669.37,-18"/>
<polygon fill="black" stroke="black" points="669.34,-20.45 676.34,-18 669.34,-15.55 669.34,-20.45"/>
</g>
<!-- bucket_7 -->
<g id="node8" class="node">
<title>bucket_7</title>
<polygon fill="lightgray" stroke="black" points="852.5,-36 783.25,-36 783.25,0 852.5,0 852.5,-36"/>
<text xml:space="preserve" text-anchor="middle" x="817.88" y="-20.5" font-family="Arial" font-size="10.00">[5s &#45; 10s]</text>
<text xml:space="preserve" text-anchor="middle" x="817.88" y="-8.5" font-family="Arial" font-size="10.00">0 goroutines</text>
</g>
<!-- bucket_6&#45;&gt;bucket_7 -->
<g id="edge7" class="edge">
<title>bucket_6&#45;&gt;bucket_7</title>
<path fill="none" stroke="black" stroke-dasharray="5,2" d="M747.72,-18C756.27,-18 765.54,-18 774.44,-18"/>
<polygon fill="black" stroke="black" points="774.3,-20.45 781.3,-18 774.3,-15.55 774.3,-20.45"/>
</g>
</g>
</svg>
