<?xml version="1.0" encoding="UTF-8" standalone="no"?>
<!DOCTYPE svg PUBLIC "-//W3C//DTD SVG 1.1//EN"
 "http://www.w3.org/Graphics/SVG/1.1/DTD/svg11.dtd">
<!-- Generated by graphviz version 13.0.1 (20250615.1724)
 -->
<!-- Title: Pipeline Pages: 1 -->
<svg width="913pt" height="100pt"
 viewBox="0.00 0.00 913.00 100.00" xmlns="http://www.w3.org/2000/svg" xmlns:xlink="http://www.w3.org/1999/xlink">
<g id="graph0" class="graph" transform="scale(1 1) rotate(0) translate(4 96)">
<title>Pipeline</title>
<polygon fill="white" stroke="none" points="-4,4 -4,-96 909.25,-96 909.25,4 -4,4"/>
<!-- stage_0 -->
<g id="node1" class="node">
<title>stage_0</title>
<polygon fill="lightgreen" stroke="black" points="114.25,-92 0,-92 0,0 114.25,0 114.25,-92"/>
<text xml:space="preserve" text-anchor="middle" x="57.12" y="-78.5" font-family="Arial" font-size="10.00">Ingestor</text>
<text xml:space="preserve" text-anchor="middle" x="57.12" y="-66.5" font-family="Arial" font-size="10.00">Routines: 50</text>
<text xml:space="preserve" text-anchor="middle" x="57.12" y="-54.5" font-family="Arial" font-size="10.00">Buffer: 1000</text>
<text xml:space="preserve" text-anchor="middle" x="57.12" y="-42.5" font-family="Arial" font-size="10.00">Processed: 0 ()</text>
<text xml:space="preserve" text-anchor="middle" x="57.12" y="-30.5" font-family="Arial" font-size="10.00">DroppedItems: 49</text>
<text xml:space="preserve" text-anchor="middle" x="57.12" y="-18.5" font-family="Arial" font-size="10.00">Output: 15281</text>
<text xml:space="preserve" text-anchor="middle" x="57.12" y="-6.5" font-family="Arial" font-size="10.00">Throughput: 1018.53 ()</text>
</g>
<!-- stage_1 -->
<g id="node2" class="node">
<title>stage_1</title>
<polygon fill="lightblue" stroke="black" points="259.25,-92 150.25,-92 150.25,0 259.25,0 259.25,-92"/>
<text xml:space="preserve" text-anchor="middle" x="204.75" y="-78.5" font-family="Arial" font-size="10.00">GeoEnrichment</text>
<text xml:space="preserve" text-anchor="middle" x="204.75" y="-66.5" font-family="Arial" font-size="10.00">Routines: 20</text>
<text xml:space="preserve" text-anchor="middle" x="204.75" y="-54.5" font-family="Arial" font-size="10.00">Buffer: 1000</text>
<text xml:space="preserve" text-anchor="middle" x="204.75" y="-42.5" font-family="Arial" font-size="10.00">Processed: 14318 ()</text>
<text xml:space="preserve" text-anchor="middle" x="204.75" y="-30.5" font-family="Arial" font-size="10.00">DroppedItems: 52</text>
<text xml:space="preserve" text-anchor="middle" x="204.75" y="-18.5" font-family="Arial" font-size="10.00">Output: 14266</text>
<text xml:space="preserve" text-anchor="middle" x="204.75" y="-6.5" font-family="Arial" font-size="10.00">Throughput: 950.88 ()</text>
</g>
<!-- stage_0&#45;&gt;stage_1 -->
<g id="edge1" class="edge">
<title>stage_0&#45;&gt;stage_1</title>
<path fill="none" stroke="black" d="M114.43,-46C122.37,-46 130.59,-46 138.68,-46"/>
<polygon fill="black" stroke="black" points="138.47,-49.5 148.47,-46 138.47,-42.5 138.47,-49.5"/>
</g>
<!-- stage_2 -->
<g id="node3" class="node">
<title>stage_2</title>
<polygon fill="lightblue" stroke="black" points="426,-92 295.25,-92 295.25,0 426,0 426,-92"/>
<text xml:space="preserve" text-anchor="middle" x="360.62" y="-78.5" font-family="Arial" font-size="10.00">UserProfileLookup</text>
<text xml:space="preserve" text-anchor="middle" x="360.62" y="-66.5" font-family="Arial" font-size="10.00">Routines: 20</text>
<text xml:space="preserve" text-anchor="middle" x="360.62" y="-54.5" font-family="Arial" font-size="10.00">Buffer: 1000</text>
<text xml:space="preserve" text-anchor="middle" x="360.62" y="-42.5" font-family="Arial" font-size="10.00">Processed: 14266 (&#45;0.36)</text>
<text xml:space="preserve" text-anchor="middle" x="360.62" y="-30.5" font-family="Arial" font-size="10.00">DroppedItems: 26</text>
<text xml:space="preserve" text-anchor="middle" x="360.62" y="-18.5" font-family="Arial" font-size="10.00">Output: 14240</text>
<text xml:space="preserve" text-anchor="middle" x="360.62" y="-6.5" font-family="Arial" font-size="10.00">Throughput: 949.15 (&#45;0.18)</text>
</g>
<!-- stage_1&#45;&gt;stage_2 -->
<g id="edge2" class="edge">
<title>stage_1&#45;&gt;stage_2</title>
<path fill="none" stroke="black" d="M259.57,-46C267.34,-46 275.47,-46 283.58,-46"/>
<polygon fill="black" stroke="black" points="283.48,-49.5 293.48,-46 283.48,-42.5 283.48,-49.5"/>
</g>
<!-- stage_3 -->
<g id="node4" class="node">
<title>stage_3</title>
<polygon fill="lightblue" stroke="black" points="592.75,-92 462,-92 462,0 592.75,0 592.75,-92"/>
<text xml:space="preserve" text-anchor="middle" x="527.38" y="-78.5" font-family="Arial" font-size="10.00">FraudScore</text>
<text xml:space="preserve" text-anchor="middle" x="527.38" y="-66.5" font-family="Arial" font-size="10.00">Routines: 20</text>
<text xml:space="preserve" text-anchor="middle" x="527.38" y="-54.5" font-family="Arial" font-size="10.00">Buffer: 1000</text>
<text xml:space="preserve" text-anchor="middle" x="527.38" y="-42.5" font-family="Arial" font-size="10.00">Processed: 14240 (&#45;0.18)</text>
<text xml:space="preserve" text-anchor="middle" x="527.38" y="-30.5" font-family="Arial" font-size="10.00">DroppedItems: 19</text>
<text xml:space="preserve" text-anchor="middle" x="527.38" y="-18.5" font-family="Arial" font-size="10.00">Output: 14221</text>
<text xml:space="preserve" text-anchor="middle" x="527.38" y="-6.5" font-family="Arial" font-size="10.00">Throughput: 947.88 (&#45;0.13)</text>
</g>
<!-- stage_2&#45;&gt;stage_3 -->
<g id="edge3" class="edge">
<title>stage_2&#45;&gt;stage_3</title>
<path fill="none" stroke="black" d="M426.27,-46C434.17,-46 442.3,-46 450.35,-46"/>
<polygon fill="black" stroke="black" points="450.14,-49.5 460.14,-46 450.14,-42.5 450.14,-49.5"/>
</g>
<!-- stage_4 -->
<g id="node5" class="node">
<title>stage_4</title>
<polygon fill="lightblue" stroke="black" points="759.5,-92 628.75,-92 628.75,0 759.5,0 759.5,-92"/>
<text xml:space="preserve" text-anchor="middle" x="694.12" y="-78.5" font-family="Arial" font-size="10.00">Storage</text>
<text xml:space="preserve" text-anchor="middle" x="694.12" y="-66.5" font-family="Arial" font-size="10.00">Routines: 20</text>
<text xml:space="preserve" text-anchor="middle" x="694.12" y="-54.5" font-family="Arial" font-size="10.00">Buffer: 1000</text>
<text xml:space="preserve" text-anchor="middle" x="694.12" y="-42.5" font-family="Arial" font-size="10.00">Processed: 14221 (&#45;0.13)</text>
<text xml:space="preserve" text-anchor="middle" x="694.12" y="-30.5" font-family="Arial" font-size="10.00">DroppedItems: 20</text>
<text xml:space="preserve" text-anchor="middle" x="694.12" y="-18.5" font-family="Arial" font-size="10.00">Output: 14201</text>
<text xml:space="preserve" text-anchor="middle" x="694.12" y="-6.5" font-family="Arial" font-size="10.00">Throughput: 946.55 (&#45;0.14)</text>
</g>
<!-- stage_3&#45;&gt;stage_4 -->
<g id="edge4" class="edge">
<title>stage_3&#45;&gt;stage_4</title>
<path fill="none" stroke="black" d="M593.02,-46C600.92,-46 609.05,-46 617.1,-46"/>
<polygon fill="black" stroke="black" points="616.89,-49.5 626.89,-46 616.89,-42.5 616.89,-49.5"/>
</g>
<!-- stage_5 -->
<g id="node6" class="node">
<title>stage_5</title>
<polygon fill="lightcoral" stroke="black" points="905.25,-92 795.5,-92 795.5,0 905.25,0 905.25,-92"/>
<text xml:space="preserve" text-anchor="middle" x="850.38" y="-78.5" font-family="Arial" font-size="10.00">Finalizer</text>
<text xml:space="preserve" text-anchor="middle" x="850.38" y="-66.5" font-family="Arial" font-size="10.00">Routines: 20</text>
<text xml:space="preserve" text-anchor="middle" x="850.38" y="-54.5" font-family="Arial" font-size="10.00">Buffer: 1000</text>
<text xml:space="preserve" text-anchor="middle" x="850.38" y="-42.5" font-family="Arial" font-size="10.00">Processed: 14201 ()</text>
<text xml:space="preserve" text-anchor="middle" x="850.38" y="-30.5" font-family="Arial" font-size="10.00">DroppedItems: 14201</text>
<text xml:space="preserve" text-anchor="middle" x="850.38" y="-18.5" font-family="Arial" font-size="10.00">Output: 0</text>
<text xml:space="preserve" text-anchor="middle" x="850.38" y="-6.5" font-family="Arial" font-size="10.00">Throughput: 0.00 ()</text>
</g>
<!-- stage_4&#45;&gt;stage_5 -->
<g id="edge5" class="edge">
<title>stage_4&#45;&gt;stage_5</title>
<path fill="none" stroke="black" d="M759.65,-46C767.73,-46 776,-46 784.09,-46"/>
<polygon fill="black" stroke="black" points="783.86,-49.5 793.86,-46 783.86,-42.5 783.86,-49.5"/>
</g>
</g>
</svg>
